<svg xmlns="http://www.w3.org/2000/svg" viewBox="0 0 32 32" fill="none">
  <defs>
    <linearGradient id="bg" x1="4" y1="3" x2="28" y2="29" gradientUnits="userSpaceOnUse">
      <stop stop-color="#0a1422"/>
      <stop offset="1" stop-color="#152238"/>
    </linearGradient>
    <linearGradient id="shield" x1="16" y1="6" x2="16" y2="26" gradientUnits="userSpaceOnUse">
      <stop stop-color="#2f6eb8"/>
      <stop offset="1" stop-color="#1a4f8c"/>
    </linearGradient>
    <linearGradient id="gold" x1="10" y1="10" x2="22" y2="24" gradientUnits="userSpaceOnUse">
      <stop stop-color="#f0d78c"/>
      <stop offset="1" stop-color="#b8943f"/>
    </linearGradient>
  </defs>

  <rect width="32" height="32" rx="7" fill="url(#bg)"/>

  <path
    d="M16 5 10 7.5v7.2c0 4.2 2.2 7 6 8.3 3.8-1.3 6-4.1 6-8.3V7.5L16 5Z"
    fill="url(#shield)"
    stroke="url(#gold)"
    stroke-width="1.1"
    stroke-linejoin="round"
  />

  <path d="M11.5 13.5 16 11l4.5 2.5" stroke="url(#gold)" stroke-width="1.2" stroke-linecap="round" stroke-linejoin="round"/>

  <rect x="12.2" y="14.2" width="1.8" height="6.8" rx="0.4" fill="#eef2f8"/>
  <rect x="15.1" y="14.2" width="1.8" height="6.8" rx="0.4" fill="#eef2f8"/>
  <rect x="18" y="14.2" width="1.8" height="6.8" rx="0.4" fill="#eef2f8"/>

  <rect x="10.5" y="21.2" width="11" height="1.4" rx="0.35" fill="url(#gold)"/>
</svg>
